<mxfile host="Electron" agent="Mozilla/5.0 (Windows NT 10.0; Win64; x64) AppleWebKit/537.36 (KHTML, like Gecko) draw.io/26.0.15 Chrome/132.0.6834.196 Electron/34.2.0 Safari/537.36" version="26.0.15">
  <diagram name="Page-1" id="KXsv-SbmqL6vV2vkOxpw">
    <mxGraphModel dx="864" dy="508" grid="1" gridSize="10" guides="1" tooltips="1" connect="1" arrows="1" fold="1" page="1" pageScale="1" pageWidth="850" pageHeight="1100" math="0" shadow="0">
      <root>
        <mxCell id="0" />
        <mxCell id="1" parent="0" />
        <mxCell id="acdErQ66P6RH8D1Io6qJ-1" value="Start" style="rounded=1;whiteSpace=wrap;html=1;fontSize=16;" parent="1" vertex="1">
          <mxGeometry x="455" y="110" width="120" height="60" as="geometry" />
        </mxCell>
        <mxCell id="acdErQ66P6RH8D1Io6qJ-2" value="" style="endArrow=classic;html=1;rounded=0;fontSize=16;" parent="1" source="acdErQ66P6RH8D1Io6qJ-1" target="acdErQ66P6RH8D1Io6qJ-4" edge="1">
          <mxGeometry width="50" height="50" relative="1" as="geometry">
            <mxPoint x="500" y="270" as="sourcePoint" />
            <mxPoint x="524" y="210" as="targetPoint" />
          </mxGeometry>
        </mxCell>
        <mxCell id="acdErQ66P6RH8D1Io6qJ-3" style="edgeStyle=orthogonalEdgeStyle;rounded=0;orthogonalLoop=1;jettySize=auto;html=1;entryX=0.5;entryY=0;entryDx=0;entryDy=0;" parent="1" source="acdErQ66P6RH8D1Io6qJ-4" target="acdErQ66P6RH8D1Io6qJ-8" edge="1">
          <mxGeometry relative="1" as="geometry">
            <Array as="points">
              <mxPoint x="847" y="240" />
            </Array>
          </mxGeometry>
        </mxCell>
        <mxCell id="acdErQ66P6RH8D1Io6qJ-4" value="Music Library platform&amp;nbsp;&lt;div&gt;Login page&lt;/div&gt;" style="rounded=0;whiteSpace=wrap;html=1;fontSize=16;" parent="1" vertex="1">
          <mxGeometry x="430" y="200" width="170" height="70" as="geometry" />
        </mxCell>
        <mxCell id="acdErQ66P6RH8D1Io6qJ-5" value="Users" style="rounded=0;whiteSpace=wrap;html=1;fontSize=16;" parent="1" vertex="1">
          <mxGeometry x="140" y="310" width="120" height="60" as="geometry" />
        </mxCell>
        <mxCell id="acdErQ66P6RH8D1Io6qJ-6" style="edgeStyle=orthogonalEdgeStyle;rounded=0;orthogonalLoop=1;jettySize=auto;html=1;entryX=0.5;entryY=0;entryDx=0;entryDy=0;fontSize=16;" parent="1" source="acdErQ66P6RH8D1Io6qJ-7" target="acdErQ66P6RH8D1Io6qJ-19" edge="1">
          <mxGeometry relative="1" as="geometry">
            <Array as="points">
              <mxPoint x="530" y="380" />
              <mxPoint x="530" y="380" />
            </Array>
          </mxGeometry>
        </mxCell>
        <mxCell id="acdErQ66P6RH8D1Io6qJ-7" value="Artists" style="rounded=0;whiteSpace=wrap;html=1;fontSize=16;" parent="1" vertex="1">
          <mxGeometry x="455" y="310" width="120" height="60" as="geometry" />
        </mxCell>
        <mxCell id="acdErQ66P6RH8D1Io6qJ-8" value="Admin" style="rounded=0;whiteSpace=wrap;html=1;fontSize=16;" parent="1" vertex="1">
          <mxGeometry x="790" y="310" width="120" height="60" as="geometry" />
        </mxCell>
        <mxCell id="acdErQ66P6RH8D1Io6qJ-9" style="edgeStyle=orthogonalEdgeStyle;rounded=0;orthogonalLoop=1;jettySize=auto;html=1;entryX=0;entryY=0.5;entryDx=0;entryDy=0;" parent="1" source="acdErQ66P6RH8D1Io6qJ-10" target="acdErQ66P6RH8D1Io6qJ-21" edge="1">
          <mxGeometry relative="1" as="geometry">
            <Array as="points">
              <mxPoint x="190" y="1060" />
            </Array>
          </mxGeometry>
        </mxCell>
        <mxCell id="acdErQ66P6RH8D1Io6qJ-10" value="Login" style="rhombus;whiteSpace=wrap;html=1;fontSize=16;" parent="1" vertex="1">
          <mxGeometry x="150" y="420" width="80" height="80" as="geometry" />
        </mxCell>
        <mxCell id="acdErQ66P6RH8D1Io6qJ-11" style="edgeStyle=orthogonalEdgeStyle;rounded=0;orthogonalLoop=1;jettySize=auto;html=1;entryX=1;entryY=0.5;entryDx=0;entryDy=0;exitX=0.5;exitY=1;exitDx=0;exitDy=0;" parent="1" source="acdErQ66P6RH8D1Io6qJ-12" edge="1">
          <mxGeometry relative="1" as="geometry">
            <mxPoint x="847" y="509.99999999999994" as="sourcePoint" />
            <mxPoint x="590" y="1060" as="targetPoint" />
            <Array as="points">
              <mxPoint x="850" y="1060" />
            </Array>
          </mxGeometry>
        </mxCell>
        <mxCell id="acdErQ66P6RH8D1Io6qJ-12" value="Login" style="rhombus;whiteSpace=wrap;html=1;fontSize=16;" parent="1" vertex="1">
          <mxGeometry x="810" y="430" width="80" height="80" as="geometry" />
        </mxCell>
        <mxCell id="acdErQ66P6RH8D1Io6qJ-13" value="" style="endArrow=classic;html=1;rounded=0;exitX=0.42;exitY=1.004;exitDx=0;exitDy=0;entryX=0.5;entryY=0;entryDx=0;entryDy=0;exitPerimeter=0;fontSize=16;" parent="1" source="acdErQ66P6RH8D1Io6qJ-5" target="acdErQ66P6RH8D1Io6qJ-10" edge="1">
          <mxGeometry width="50" height="50" relative="1" as="geometry">
            <mxPoint x="190" y="420" as="sourcePoint" />
            <mxPoint x="160" y="400" as="targetPoint" />
          </mxGeometry>
        </mxCell>
        <mxCell id="acdErQ66P6RH8D1Io6qJ-14" value="" style="endArrow=classic;html=1;rounded=0;exitX=0.5;exitY=1;exitDx=0;exitDy=0;entryX=0.5;entryY=0;entryDx=0;entryDy=0;fontSize=16;" parent="1" source="acdErQ66P6RH8D1Io6qJ-8" target="acdErQ66P6RH8D1Io6qJ-12" edge="1">
          <mxGeometry width="50" height="50" relative="1" as="geometry">
            <mxPoint x="678" y="400" as="sourcePoint" />
            <mxPoint x="677" y="448" as="targetPoint" />
          </mxGeometry>
        </mxCell>
        <mxCell id="acdErQ66P6RH8D1Io6qJ-15" value="" style="endArrow=classic;html=1;rounded=0;entryX=0;entryY=0.5;entryDx=0;entryDy=0;exitX=0;exitY=0.5;exitDx=0;exitDy=0;fontSize=16;" parent="1" source="acdErQ66P6RH8D1Io6qJ-10" target="acdErQ66P6RH8D1Io6qJ-5" edge="1">
          <mxGeometry width="50" height="50" relative="1" as="geometry">
            <mxPoint x="140" y="450" as="sourcePoint" />
            <mxPoint x="130" y="440" as="targetPoint" />
            <Array as="points">
              <mxPoint x="110" y="460" />
              <mxPoint x="110" y="340" />
            </Array>
          </mxGeometry>
        </mxCell>
        <mxCell id="acdErQ66P6RH8D1Io6qJ-16" value="" style="endArrow=classic;html=1;rounded=0;entryX=1;entryY=0.5;entryDx=0;entryDy=0;exitX=1;exitY=0.5;exitDx=0;exitDy=0;fontSize=16;" parent="1" source="acdErQ66P6RH8D1Io6qJ-12" target="acdErQ66P6RH8D1Io6qJ-8" edge="1">
          <mxGeometry width="50" height="50" relative="1" as="geometry">
            <mxPoint x="967" y="460" as="sourcePoint" />
            <mxPoint x="957" y="340" as="targetPoint" />
            <Array as="points">
              <mxPoint x="927" y="470" />
              <mxPoint x="927" y="340" />
            </Array>
          </mxGeometry>
        </mxCell>
        <mxCell id="acdErQ66P6RH8D1Io6qJ-17" value="" style="endArrow=classic;html=1;rounded=0;entryX=1;entryY=0.5;entryDx=0;entryDy=0;exitX=1;exitY=0.5;exitDx=0;exitDy=0;fontSize=16;" parent="1" source="acdErQ66P6RH8D1Io6qJ-19" target="acdErQ66P6RH8D1Io6qJ-7" edge="1">
          <mxGeometry width="50" height="50" relative="1" as="geometry">
            <mxPoint x="590" y="460" as="sourcePoint" />
            <mxPoint x="580" y="420" as="targetPoint" />
            <Array as="points">
              <mxPoint x="620" y="460" />
              <mxPoint x="620" y="340" />
            </Array>
          </mxGeometry>
        </mxCell>
        <mxCell id="acdErQ66P6RH8D1Io6qJ-18" style="edgeStyle=orthogonalEdgeStyle;rounded=0;orthogonalLoop=1;jettySize=auto;html=1;" parent="1" source="acdErQ66P6RH8D1Io6qJ-19" target="acdErQ66P6RH8D1Io6qJ-21" edge="1">
          <mxGeometry relative="1" as="geometry" />
        </mxCell>
        <mxCell id="acdErQ66P6RH8D1Io6qJ-19" value="Login" style="rhombus;whiteSpace=wrap;html=1;fontSize=16;" parent="1" vertex="1">
          <mxGeometry x="490" y="420" width="80" height="80" as="geometry" />
        </mxCell>
        <mxCell id="acdErQ66P6RH8D1Io6qJ-20" style="edgeStyle=orthogonalEdgeStyle;rounded=0;orthogonalLoop=1;jettySize=auto;html=1;fontSize=16;" parent="1" source="acdErQ66P6RH8D1Io6qJ-21" target="acdErQ66P6RH8D1Io6qJ-22" edge="1">
          <mxGeometry relative="1" as="geometry">
            <mxPoint x="523" y="1100" as="targetPoint" />
          </mxGeometry>
        </mxCell>
        <mxCell id="acdErQ66P6RH8D1Io6qJ-21" value="Log Out" style="rounded=0;whiteSpace=wrap;html=1;fontSize=16;" parent="1" vertex="1">
          <mxGeometry x="470" y="1040" width="120" height="40" as="geometry" />
        </mxCell>
        <mxCell id="acdErQ66P6RH8D1Io6qJ-22" value="End" style="rounded=1;whiteSpace=wrap;html=1;fontSize=16;" parent="1" vertex="1">
          <mxGeometry x="470" y="1130" width="120" height="60" as="geometry" />
        </mxCell>
        <mxCell id="acdErQ66P6RH8D1Io6qJ-24" value="Create User Profile" style="rounded=0;whiteSpace=wrap;html=1;fontSize=16;" parent="1" vertex="1">
          <mxGeometry x="50" y="520" width="120" height="40" as="geometry" />
        </mxCell>
        <mxCell id="acdErQ66P6RH8D1Io6qJ-25" value="View User Profile" style="rounded=0;whiteSpace=wrap;html=1;fontSize=16;" parent="1" vertex="1">
          <mxGeometry x="50" y="570" width="120" height="40" as="geometry" />
        </mxCell>
        <mxCell id="acdErQ66P6RH8D1Io6qJ-26" value="Update Own User Profile" style="rounded=0;whiteSpace=wrap;html=1;fontSize=16;" parent="1" vertex="1">
          <mxGeometry x="50" y="625" width="120" height="40" as="geometry" />
        </mxCell>
        <mxCell id="acdErQ66P6RH8D1Io6qJ-27" value="Delete O&lt;span style=&quot;background-color: transparent; color: light-dark(rgb(0, 0, 0), rgb(255, 255, 255));&quot;&gt;wn User Profile&lt;/span&gt;" style="rounded=0;whiteSpace=wrap;html=1;fontSize=16;" parent="1" vertex="1">
          <mxGeometry x="50" y="680" width="120" height="40" as="geometry" />
        </mxCell>
        <mxCell id="acdErQ66P6RH8D1Io6qJ-28" value="Listen Music" style="rounded=0;whiteSpace=wrap;html=1;fontSize=16;" parent="1" vertex="1">
          <mxGeometry x="210" y="520" width="120" height="40" as="geometry" />
        </mxCell>
        <mxCell id="acdErQ66P6RH8D1Io6qJ-29" value="Like Music" style="rounded=0;whiteSpace=wrap;html=1;fontSize=16;" parent="1" vertex="1">
          <mxGeometry x="210" y="570" width="120" height="40" as="geometry" />
        </mxCell>
        <mxCell id="acdErQ66P6RH8D1Io6qJ-30" value="Unlike Music" style="rounded=0;whiteSpace=wrap;html=1;fontSize=16;" parent="1" vertex="1">
          <mxGeometry x="210" y="625" width="120" height="40" as="geometry" />
        </mxCell>
        <mxCell id="acdErQ66P6RH8D1Io6qJ-31" value="Create Playlists" style="rounded=0;whiteSpace=wrap;html=1;fontSize=16;" parent="1" vertex="1">
          <mxGeometry x="50" y="730" width="120" height="40" as="geometry" />
        </mxCell>
        <mxCell id="acdErQ66P6RH8D1Io6qJ-32" value="View Playlists" style="rounded=0;whiteSpace=wrap;html=1;fontSize=16;" parent="1" vertex="1">
          <mxGeometry x="50" y="830" width="120" height="40" as="geometry" />
        </mxCell>
        <mxCell id="acdErQ66P6RH8D1Io6qJ-33" value="Update Own Playlists" style="rounded=0;whiteSpace=wrap;html=1;fontSize=16;" parent="1" vertex="1">
          <mxGeometry x="50" y="780" width="120" height="40" as="geometry" />
        </mxCell>
        <mxCell id="acdErQ66P6RH8D1Io6qJ-34" value="Delete O&lt;span style=&quot;background-color: transparent; color: light-dark(rgb(0, 0, 0), rgb(255, 255, 255));&quot;&gt;wn Playlists&lt;/span&gt;" style="rounded=0;whiteSpace=wrap;html=1;fontSize=16;" parent="1" vertex="1">
          <mxGeometry x="50" y="880" width="120" height="40" as="geometry" />
        </mxCell>
        <mxCell id="acdErQ66P6RH8D1Io6qJ-35" value="Post Comment" style="rounded=0;whiteSpace=wrap;html=1;fontSize=16;" parent="1" vertex="1">
          <mxGeometry x="210" y="680" width="120" height="40" as="geometry" />
        </mxCell>
        <mxCell id="acdErQ66P6RH8D1Io6qJ-36" value="View Comment" style="rounded=0;whiteSpace=wrap;html=1;fontSize=16;" parent="1" vertex="1">
          <mxGeometry x="210" y="730" width="120" height="40" as="geometry" />
        </mxCell>
        <mxCell id="acdErQ66P6RH8D1Io6qJ-37" value="Update Own Comment" style="rounded=0;whiteSpace=wrap;html=1;fontSize=16;" parent="1" vertex="1">
          <mxGeometry x="210" y="780" width="120" height="40" as="geometry" />
        </mxCell>
        <mxCell id="acdErQ66P6RH8D1Io6qJ-38" value="Delete Own Comment" style="rounded=0;whiteSpace=wrap;html=1;fontSize=16;" parent="1" vertex="1">
          <mxGeometry x="210" y="830" width="120" height="40" as="geometry" />
        </mxCell>
        <mxCell id="acdErQ66P6RH8D1Io6qJ-39" value="Create User Profile" style="rounded=0;whiteSpace=wrap;html=1;fontSize=16;" parent="1" vertex="1">
          <mxGeometry x="390" y="520" width="120" height="40" as="geometry" />
        </mxCell>
        <mxCell id="acdErQ66P6RH8D1Io6qJ-40" value="View User Profile" style="rounded=0;whiteSpace=wrap;html=1;fontSize=16;" parent="1" vertex="1">
          <mxGeometry x="390" y="570" width="120" height="40" as="geometry" />
        </mxCell>
        <mxCell id="acdErQ66P6RH8D1Io6qJ-41" value="Update Own User Profile" style="rounded=0;whiteSpace=wrap;html=1;fontSize=16;" parent="1" vertex="1">
          <mxGeometry x="390" y="625" width="120" height="40" as="geometry" />
        </mxCell>
        <mxCell id="acdErQ66P6RH8D1Io6qJ-42" value="Delete O&lt;span style=&quot;background-color: transparent; color: light-dark(rgb(0, 0, 0), rgb(255, 255, 255));&quot;&gt;wn User Profile&lt;/span&gt;" style="rounded=0;whiteSpace=wrap;html=1;fontSize=16;" parent="1" vertex="1">
          <mxGeometry x="390" y="680" width="120" height="40" as="geometry" />
        </mxCell>
        <mxCell id="acdErQ66P6RH8D1Io6qJ-43" value="Create Playlists" style="rounded=0;whiteSpace=wrap;html=1;fontSize=16;" parent="1" vertex="1">
          <mxGeometry x="390" y="730" width="120" height="40" as="geometry" />
        </mxCell>
        <mxCell id="acdErQ66P6RH8D1Io6qJ-44" value="View Playlists" style="rounded=0;whiteSpace=wrap;html=1;fontSize=16;" parent="1" vertex="1">
          <mxGeometry x="390" y="830" width="120" height="40" as="geometry" />
        </mxCell>
        <mxCell id="acdErQ66P6RH8D1Io6qJ-45" value="Update Own Playlists" style="rounded=0;whiteSpace=wrap;html=1;fontSize=16;" parent="1" vertex="1">
          <mxGeometry x="390" y="780" width="120" height="40" as="geometry" />
        </mxCell>
        <mxCell id="acdErQ66P6RH8D1Io6qJ-46" value="Delete O&lt;span style=&quot;background-color: transparent; color: light-dark(rgb(0, 0, 0), rgb(255, 255, 255));&quot;&gt;wn Playlists&lt;/span&gt;" style="rounded=0;whiteSpace=wrap;html=1;fontSize=16;" parent="1" vertex="1">
          <mxGeometry x="390" y="880" width="120" height="40" as="geometry" />
        </mxCell>
        <mxCell id="acdErQ66P6RH8D1Io6qJ-47" value="Listen Music" style="rounded=0;whiteSpace=wrap;html=1;fontSize=16;" parent="1" vertex="1">
          <mxGeometry x="550" y="520" width="120" height="40" as="geometry" />
        </mxCell>
        <mxCell id="acdErQ66P6RH8D1Io6qJ-48" value="Like Music" style="rounded=0;whiteSpace=wrap;html=1;fontSize=16;" parent="1" vertex="1">
          <mxGeometry x="550" y="730" width="120" height="40" as="geometry" />
        </mxCell>
        <mxCell id="acdErQ66P6RH8D1Io6qJ-49" value="Unlike Music" style="rounded=0;whiteSpace=wrap;html=1;fontSize=16;" parent="1" vertex="1">
          <mxGeometry x="550" y="780" width="120" height="40" as="geometry" />
        </mxCell>
        <mxCell id="acdErQ66P6RH8D1Io6qJ-50" value="Post Comment" style="rounded=0;whiteSpace=wrap;html=1;fontSize=16;" parent="1" vertex="1">
          <mxGeometry x="550" y="830" width="120" height="40" as="geometry" />
        </mxCell>
        <mxCell id="acdErQ66P6RH8D1Io6qJ-51" value="View Comment" style="rounded=0;whiteSpace=wrap;html=1;fontSize=16;" parent="1" vertex="1">
          <mxGeometry x="550" y="880" width="120" height="40" as="geometry" />
        </mxCell>
        <mxCell id="acdErQ66P6RH8D1Io6qJ-52" value="Update Own Comment" style="rounded=0;whiteSpace=wrap;html=1;fontSize=16;" parent="1" vertex="1">
          <mxGeometry x="390" y="930" width="120" height="40" as="geometry" />
        </mxCell>
        <mxCell id="acdErQ66P6RH8D1Io6qJ-53" value="Delete Own Comment" style="rounded=0;whiteSpace=wrap;html=1;fontSize=16;" parent="1" vertex="1">
          <mxGeometry x="550" y="930" width="120" height="40" as="geometry" />
        </mxCell>
        <mxCell id="acdErQ66P6RH8D1Io6qJ-54" value="Post Music" style="rounded=0;whiteSpace=wrap;html=1;fontSize=16;" parent="1" vertex="1">
          <mxGeometry x="550" y="625" width="120" height="40" as="geometry" />
        </mxCell>
        <mxCell id="acdErQ66P6RH8D1Io6qJ-55" value="Update Music" style="rounded=0;whiteSpace=wrap;html=1;fontSize=16;" parent="1" vertex="1">
          <mxGeometry x="550" y="570" width="120" height="40" as="geometry" />
        </mxCell>
        <mxCell id="acdErQ66P6RH8D1Io6qJ-56" value="Delete Music" style="rounded=0;whiteSpace=wrap;html=1;fontSize=16;" parent="1" vertex="1">
          <mxGeometry x="550" y="680" width="120" height="40" as="geometry" />
        </mxCell>
        <mxCell id="acdErQ66P6RH8D1Io6qJ-57" value="Create User Profile" style="rounded=0;whiteSpace=wrap;html=1;fontSize=16;" parent="1" vertex="1">
          <mxGeometry x="710" y="520" width="120" height="40" as="geometry" />
        </mxCell>
        <mxCell id="acdErQ66P6RH8D1Io6qJ-58" value="View User Profile" style="rounded=0;whiteSpace=wrap;html=1;fontSize=16;" parent="1" vertex="1">
          <mxGeometry x="710" y="570" width="120" height="40" as="geometry" />
        </mxCell>
        <mxCell id="acdErQ66P6RH8D1Io6qJ-59" value="Update Own User Profile" style="rounded=0;whiteSpace=wrap;html=1;fontSize=16;" parent="1" vertex="1">
          <mxGeometry x="710" y="625" width="120" height="40" as="geometry" />
        </mxCell>
        <mxCell id="acdErQ66P6RH8D1Io6qJ-60" value="Delete O&lt;span style=&quot;background-color: transparent; color: light-dark(rgb(0, 0, 0), rgb(255, 255, 255));&quot;&gt;wn User Profile&lt;/span&gt;" style="rounded=0;whiteSpace=wrap;html=1;fontSize=16;" parent="1" vertex="1">
          <mxGeometry x="710" y="680" width="120" height="40" as="geometry" />
        </mxCell>
        <mxCell id="acdErQ66P6RH8D1Io6qJ-61" value="Create Playlists" style="rounded=0;whiteSpace=wrap;html=1;fontSize=16;" parent="1" vertex="1">
          <mxGeometry x="710" y="730" width="120" height="40" as="geometry" />
        </mxCell>
        <mxCell id="acdErQ66P6RH8D1Io6qJ-62" value="View Playlists" style="rounded=0;whiteSpace=wrap;html=1;fontSize=16;" parent="1" vertex="1">
          <mxGeometry x="710" y="830" width="120" height="40" as="geometry" />
        </mxCell>
        <mxCell id="acdErQ66P6RH8D1Io6qJ-63" value="Update Own Playlists" style="rounded=0;whiteSpace=wrap;html=1;fontSize=16;" parent="1" vertex="1">
          <mxGeometry x="710" y="780" width="120" height="40" as="geometry" />
        </mxCell>
        <mxCell id="acdErQ66P6RH8D1Io6qJ-64" value="Delete&lt;span style=&quot;background-color: transparent; color: light-dark(rgb(0, 0, 0), rgb(255, 255, 255));&quot;&gt;&amp;nbsp;Playlists&lt;/span&gt;" style="rounded=0;whiteSpace=wrap;html=1;fontSize=16;" parent="1" vertex="1">
          <mxGeometry x="710" y="880" width="120" height="40" as="geometry" />
        </mxCell>
        <mxCell id="acdErQ66P6RH8D1Io6qJ-65" value="Listen Music" style="rounded=0;whiteSpace=wrap;html=1;fontSize=16;" parent="1" vertex="1">
          <mxGeometry x="870" y="520" width="120" height="40" as="geometry" />
        </mxCell>
        <mxCell id="acdErQ66P6RH8D1Io6qJ-66" value="Like Music" style="rounded=0;whiteSpace=wrap;html=1;fontSize=16;" parent="1" vertex="1">
          <mxGeometry x="870" y="625" width="120" height="40" as="geometry" />
        </mxCell>
        <mxCell id="acdErQ66P6RH8D1Io6qJ-67" value="Unlike Music" style="rounded=0;whiteSpace=wrap;html=1;fontSize=16;" parent="1" vertex="1">
          <mxGeometry x="870" y="680" width="120" height="40" as="geometry" />
        </mxCell>
        <mxCell id="acdErQ66P6RH8D1Io6qJ-68" value="Post Comment" style="rounded=0;whiteSpace=wrap;html=1;fontSize=16;" parent="1" vertex="1">
          <mxGeometry x="870" y="730" width="120" height="40" as="geometry" />
        </mxCell>
        <mxCell id="acdErQ66P6RH8D1Io6qJ-69" value="View Comment" style="rounded=0;whiteSpace=wrap;html=1;fontSize=16;" parent="1" vertex="1">
          <mxGeometry x="870" y="780" width="120" height="40" as="geometry" />
        </mxCell>
        <mxCell id="acdErQ66P6RH8D1Io6qJ-70" value="Update Own Comment" style="rounded=0;whiteSpace=wrap;html=1;fontSize=16;" parent="1" vertex="1">
          <mxGeometry x="870" y="880" width="120" height="40" as="geometry" />
        </mxCell>
        <mxCell id="acdErQ66P6RH8D1Io6qJ-71" value="Delete Comment" style="rounded=0;whiteSpace=wrap;html=1;fontSize=16;" parent="1" vertex="1">
          <mxGeometry x="870" y="830" width="120" height="40" as="geometry" />
        </mxCell>
        <mxCell id="acdErQ66P6RH8D1Io6qJ-72" value="Delete Music" style="rounded=0;whiteSpace=wrap;html=1;fontSize=16;" parent="1" vertex="1">
          <mxGeometry x="870" y="570" width="120" height="40" as="geometry" />
        </mxCell>
        <mxCell id="acdErQ66P6RH8D1Io6qJ-74" style="edgeStyle=orthogonalEdgeStyle;rounded=0;orthogonalLoop=1;jettySize=auto;html=1;entryX=0.5;entryY=0;entryDx=0;entryDy=0;" parent="1" source="acdErQ66P6RH8D1Io6qJ-4" target="acdErQ66P6RH8D1Io6qJ-5" edge="1">
          <mxGeometry relative="1" as="geometry">
            <Array as="points">
              <mxPoint x="200" y="240" />
            </Array>
          </mxGeometry>
        </mxCell>
        <mxCell id="acdErQ66P6RH8D1Io6qJ-75" style="edgeStyle=orthogonalEdgeStyle;rounded=0;orthogonalLoop=1;jettySize=auto;html=1;entryX=0.5;entryY=0;entryDx=0;entryDy=0;" parent="1" source="acdErQ66P6RH8D1Io6qJ-4" target="acdErQ66P6RH8D1Io6qJ-7" edge="1">
          <mxGeometry relative="1" as="geometry" />
        </mxCell>
        <mxCell id="acdErQ66P6RH8D1Io6qJ-76" value="" style="endArrow=classic;html=1;rounded=0;entryX=1;entryY=0.5;entryDx=0;entryDy=0;" parent="1" target="acdErQ66P6RH8D1Io6qJ-24" edge="1">
          <mxGeometry width="50" height="50" relative="1" as="geometry">
            <mxPoint x="190" y="540" as="sourcePoint" />
            <mxPoint x="330" y="460" as="targetPoint" />
          </mxGeometry>
        </mxCell>
        <mxCell id="acdErQ66P6RH8D1Io6qJ-77" value="" style="endArrow=classic;html=1;rounded=0;entryX=0;entryY=0.5;entryDx=0;entryDy=0;" parent="1" target="acdErQ66P6RH8D1Io6qJ-28" edge="1">
          <mxGeometry width="50" height="50" relative="1" as="geometry">
            <mxPoint x="190" y="539.89" as="sourcePoint" />
            <mxPoint x="210" y="539.89" as="targetPoint" />
          </mxGeometry>
        </mxCell>
        <mxCell id="acdErQ66P6RH8D1Io6qJ-78" value="" style="endArrow=classic;html=1;rounded=0;entryX=1;entryY=0.5;entryDx=0;entryDy=0;" parent="1" target="acdErQ66P6RH8D1Io6qJ-25" edge="1">
          <mxGeometry width="50" height="50" relative="1" as="geometry">
            <mxPoint x="190" y="590" as="sourcePoint" />
            <mxPoint x="180" y="550" as="targetPoint" />
          </mxGeometry>
        </mxCell>
        <mxCell id="acdErQ66P6RH8D1Io6qJ-79" value="" style="endArrow=classic;html=1;rounded=0;entryX=0;entryY=0.5;entryDx=0;entryDy=0;" parent="1" target="acdErQ66P6RH8D1Io6qJ-29" edge="1">
          <mxGeometry width="50" height="50" relative="1" as="geometry">
            <mxPoint x="190" y="590" as="sourcePoint" />
            <mxPoint x="220" y="550" as="targetPoint" />
          </mxGeometry>
        </mxCell>
        <mxCell id="acdErQ66P6RH8D1Io6qJ-80" value="" style="endArrow=classic;html=1;rounded=0;entryX=1;entryY=0.5;entryDx=0;entryDy=0;" parent="1" target="acdErQ66P6RH8D1Io6qJ-26" edge="1">
          <mxGeometry width="50" height="50" relative="1" as="geometry">
            <mxPoint x="190" y="644.81" as="sourcePoint" />
            <mxPoint x="170" y="645" as="targetPoint" />
          </mxGeometry>
        </mxCell>
        <mxCell id="acdErQ66P6RH8D1Io6qJ-81" value="" style="endArrow=classic;html=1;rounded=0;entryX=0;entryY=0.5;entryDx=0;entryDy=0;" parent="1" target="acdErQ66P6RH8D1Io6qJ-30" edge="1">
          <mxGeometry width="50" height="50" relative="1" as="geometry">
            <mxPoint x="190" y="645" as="sourcePoint" />
            <mxPoint x="230" y="560" as="targetPoint" />
          </mxGeometry>
        </mxCell>
        <mxCell id="acdErQ66P6RH8D1Io6qJ-82" value="" style="endArrow=classic;html=1;rounded=0;entryX=1;entryY=0.5;entryDx=0;entryDy=0;" parent="1" target="acdErQ66P6RH8D1Io6qJ-27" edge="1">
          <mxGeometry width="50" height="50" relative="1" as="geometry">
            <mxPoint x="190" y="700" as="sourcePoint" />
            <mxPoint x="180" y="655" as="targetPoint" />
          </mxGeometry>
        </mxCell>
        <mxCell id="acdErQ66P6RH8D1Io6qJ-83" value="" style="endArrow=classic;html=1;rounded=0;entryX=0;entryY=0.5;entryDx=0;entryDy=0;" parent="1" target="acdErQ66P6RH8D1Io6qJ-35" edge="1">
          <mxGeometry width="50" height="50" relative="1" as="geometry">
            <mxPoint x="190" y="700" as="sourcePoint" />
            <mxPoint x="220" y="655" as="targetPoint" />
          </mxGeometry>
        </mxCell>
        <mxCell id="acdErQ66P6RH8D1Io6qJ-84" value="" style="endArrow=classic;html=1;rounded=0;entryX=1;entryY=0.5;entryDx=0;entryDy=0;" parent="1" target="acdErQ66P6RH8D1Io6qJ-31" edge="1">
          <mxGeometry width="50" height="50" relative="1" as="geometry">
            <mxPoint x="190" y="749.81" as="sourcePoint" />
            <mxPoint x="170" y="750" as="targetPoint" />
          </mxGeometry>
        </mxCell>
        <mxCell id="acdErQ66P6RH8D1Io6qJ-85" value="" style="endArrow=classic;html=1;rounded=0;entryX=0;entryY=0.5;entryDx=0;entryDy=0;" parent="1" target="acdErQ66P6RH8D1Io6qJ-36" edge="1">
          <mxGeometry width="50" height="50" relative="1" as="geometry">
            <mxPoint x="190" y="750" as="sourcePoint" />
            <mxPoint x="210" y="750" as="targetPoint" />
          </mxGeometry>
        </mxCell>
        <mxCell id="acdErQ66P6RH8D1Io6qJ-86" value="" style="endArrow=classic;html=1;rounded=0;entryX=1;entryY=0.5;entryDx=0;entryDy=0;" parent="1" edge="1">
          <mxGeometry width="50" height="50" relative="1" as="geometry">
            <mxPoint x="190" y="799.7299999999999" as="sourcePoint" />
            <mxPoint x="170" y="799.92" as="targetPoint" />
          </mxGeometry>
        </mxCell>
        <mxCell id="acdErQ66P6RH8D1Io6qJ-87" value="" style="endArrow=classic;html=1;rounded=0;entryX=0;entryY=0.5;entryDx=0;entryDy=0;" parent="1" edge="1">
          <mxGeometry width="50" height="50" relative="1" as="geometry">
            <mxPoint x="190" y="799.92" as="sourcePoint" />
            <mxPoint x="210" y="799.92" as="targetPoint" />
          </mxGeometry>
        </mxCell>
        <mxCell id="acdErQ66P6RH8D1Io6qJ-88" value="" style="endArrow=classic;html=1;rounded=0;entryX=1;entryY=0.5;entryDx=0;entryDy=0;" parent="1" edge="1">
          <mxGeometry width="50" height="50" relative="1" as="geometry">
            <mxPoint x="190" y="849.7299999999999" as="sourcePoint" />
            <mxPoint x="170" y="849.92" as="targetPoint" />
          </mxGeometry>
        </mxCell>
        <mxCell id="acdErQ66P6RH8D1Io6qJ-89" value="" style="endArrow=classic;html=1;rounded=0;entryX=0;entryY=0.5;entryDx=0;entryDy=0;" parent="1" edge="1">
          <mxGeometry width="50" height="50" relative="1" as="geometry">
            <mxPoint x="190" y="849.92" as="sourcePoint" />
            <mxPoint x="210" y="849.92" as="targetPoint" />
          </mxGeometry>
        </mxCell>
        <mxCell id="acdErQ66P6RH8D1Io6qJ-90" value="" style="endArrow=classic;html=1;rounded=0;entryX=1;entryY=0.5;entryDx=0;entryDy=0;" parent="1" edge="1">
          <mxGeometry width="50" height="50" relative="1" as="geometry">
            <mxPoint x="190" y="899.7299999999999" as="sourcePoint" />
            <mxPoint x="170" y="899.92" as="targetPoint" />
          </mxGeometry>
        </mxCell>
        <mxCell id="acdErQ66P6RH8D1Io6qJ-91" value="" style="endArrow=classic;html=1;rounded=0;entryX=1;entryY=0.5;entryDx=0;entryDy=0;" parent="1" edge="1">
          <mxGeometry width="50" height="50" relative="1" as="geometry">
            <mxPoint x="530" y="540" as="sourcePoint" />
            <mxPoint x="510" y="540.19" as="targetPoint" />
          </mxGeometry>
        </mxCell>
        <mxCell id="acdErQ66P6RH8D1Io6qJ-92" value="" style="endArrow=classic;html=1;rounded=0;entryX=0;entryY=0.5;entryDx=0;entryDy=0;" parent="1" edge="1">
          <mxGeometry width="50" height="50" relative="1" as="geometry">
            <mxPoint x="530" y="540.19" as="sourcePoint" />
            <mxPoint x="550" y="540.19" as="targetPoint" />
          </mxGeometry>
        </mxCell>
        <mxCell id="acdErQ66P6RH8D1Io6qJ-93" value="" style="endArrow=classic;html=1;rounded=0;entryX=1;entryY=0.5;entryDx=0;entryDy=0;" parent="1" edge="1">
          <mxGeometry width="50" height="50" relative="1" as="geometry">
            <mxPoint x="530" y="589.76" as="sourcePoint" />
            <mxPoint x="510" y="589.95" as="targetPoint" />
          </mxGeometry>
        </mxCell>
        <mxCell id="acdErQ66P6RH8D1Io6qJ-94" value="" style="endArrow=classic;html=1;rounded=0;entryX=0;entryY=0.5;entryDx=0;entryDy=0;" parent="1" edge="1">
          <mxGeometry width="50" height="50" relative="1" as="geometry">
            <mxPoint x="530" y="589.95" as="sourcePoint" />
            <mxPoint x="550" y="589.95" as="targetPoint" />
          </mxGeometry>
        </mxCell>
        <mxCell id="acdErQ66P6RH8D1Io6qJ-95" value="" style="endArrow=classic;html=1;rounded=0;entryX=1;entryY=0.5;entryDx=0;entryDy=0;" parent="1" edge="1">
          <mxGeometry width="50" height="50" relative="1" as="geometry">
            <mxPoint x="530" y="644.76" as="sourcePoint" />
            <mxPoint x="510" y="644.95" as="targetPoint" />
          </mxGeometry>
        </mxCell>
        <mxCell id="acdErQ66P6RH8D1Io6qJ-96" value="" style="endArrow=classic;html=1;rounded=0;entryX=0;entryY=0.5;entryDx=0;entryDy=0;" parent="1" edge="1">
          <mxGeometry width="50" height="50" relative="1" as="geometry">
            <mxPoint x="530" y="644.95" as="sourcePoint" />
            <mxPoint x="550" y="644.95" as="targetPoint" />
          </mxGeometry>
        </mxCell>
        <mxCell id="acdErQ66P6RH8D1Io6qJ-97" value="" style="endArrow=classic;html=1;rounded=0;entryX=1;entryY=0.5;entryDx=0;entryDy=0;" parent="1" edge="1">
          <mxGeometry width="50" height="50" relative="1" as="geometry">
            <mxPoint x="530" y="699.86" as="sourcePoint" />
            <mxPoint x="510" y="700.0500000000001" as="targetPoint" />
          </mxGeometry>
        </mxCell>
        <mxCell id="acdErQ66P6RH8D1Io6qJ-98" value="" style="endArrow=classic;html=1;rounded=0;entryX=0;entryY=0.5;entryDx=0;entryDy=0;" parent="1" edge="1">
          <mxGeometry width="50" height="50" relative="1" as="geometry">
            <mxPoint x="530" y="699.86" as="sourcePoint" />
            <mxPoint x="550" y="699.86" as="targetPoint" />
          </mxGeometry>
        </mxCell>
        <mxCell id="acdErQ66P6RH8D1Io6qJ-99" value="" style="endArrow=classic;html=1;rounded=0;entryX=1;entryY=0.5;entryDx=0;entryDy=0;" parent="1" edge="1">
          <mxGeometry width="50" height="50" relative="1" as="geometry">
            <mxPoint x="530" y="749.76" as="sourcePoint" />
            <mxPoint x="510" y="749.95" as="targetPoint" />
          </mxGeometry>
        </mxCell>
        <mxCell id="acdErQ66P6RH8D1Io6qJ-100" value="" style="endArrow=classic;html=1;rounded=0;entryX=0;entryY=0.5;entryDx=0;entryDy=0;" parent="1" edge="1">
          <mxGeometry width="50" height="50" relative="1" as="geometry">
            <mxPoint x="530" y="749.95" as="sourcePoint" />
            <mxPoint x="550" y="749.95" as="targetPoint" />
          </mxGeometry>
        </mxCell>
        <mxCell id="acdErQ66P6RH8D1Io6qJ-101" value="" style="endArrow=classic;html=1;rounded=0;entryX=1;entryY=0.5;entryDx=0;entryDy=0;" parent="1" edge="1">
          <mxGeometry width="50" height="50" relative="1" as="geometry">
            <mxPoint x="530" y="799.76" as="sourcePoint" />
            <mxPoint x="510" y="799.95" as="targetPoint" />
          </mxGeometry>
        </mxCell>
        <mxCell id="acdErQ66P6RH8D1Io6qJ-102" value="" style="endArrow=classic;html=1;rounded=0;entryX=0;entryY=0.5;entryDx=0;entryDy=0;" parent="1" edge="1">
          <mxGeometry width="50" height="50" relative="1" as="geometry">
            <mxPoint x="530" y="799.95" as="sourcePoint" />
            <mxPoint x="550" y="799.95" as="targetPoint" />
          </mxGeometry>
        </mxCell>
        <mxCell id="acdErQ66P6RH8D1Io6qJ-103" value="" style="endArrow=classic;html=1;rounded=0;entryX=1;entryY=0.5;entryDx=0;entryDy=0;" parent="1" edge="1">
          <mxGeometry width="50" height="50" relative="1" as="geometry">
            <mxPoint x="530" y="849.7" as="sourcePoint" />
            <mxPoint x="510" y="849.8900000000001" as="targetPoint" />
          </mxGeometry>
        </mxCell>
        <mxCell id="acdErQ66P6RH8D1Io6qJ-104" value="" style="endArrow=classic;html=1;rounded=0;entryX=0;entryY=0.5;entryDx=0;entryDy=0;" parent="1" edge="1">
          <mxGeometry width="50" height="50" relative="1" as="geometry">
            <mxPoint x="530" y="849.8900000000001" as="sourcePoint" />
            <mxPoint x="550" y="849.8900000000001" as="targetPoint" />
          </mxGeometry>
        </mxCell>
        <mxCell id="acdErQ66P6RH8D1Io6qJ-105" value="" style="endArrow=classic;html=1;rounded=0;entryX=1;entryY=0.5;entryDx=0;entryDy=0;" parent="1" edge="1">
          <mxGeometry width="50" height="50" relative="1" as="geometry">
            <mxPoint x="530" y="949.7" as="sourcePoint" />
            <mxPoint x="510" y="949.8900000000001" as="targetPoint" />
          </mxGeometry>
        </mxCell>
        <mxCell id="acdErQ66P6RH8D1Io6qJ-106" value="" style="endArrow=classic;html=1;rounded=0;entryX=0;entryY=0.5;entryDx=0;entryDy=0;" parent="1" edge="1">
          <mxGeometry width="50" height="50" relative="1" as="geometry">
            <mxPoint x="530" y="949.8900000000001" as="sourcePoint" />
            <mxPoint x="550" y="949.8900000000001" as="targetPoint" />
          </mxGeometry>
        </mxCell>
        <mxCell id="acdErQ66P6RH8D1Io6qJ-107" value="" style="endArrow=classic;html=1;rounded=0;entryX=1;entryY=0.5;entryDx=0;entryDy=0;" parent="1" edge="1">
          <mxGeometry width="50" height="50" relative="1" as="geometry">
            <mxPoint x="530" y="899.7" as="sourcePoint" />
            <mxPoint x="510" y="899.8900000000001" as="targetPoint" />
          </mxGeometry>
        </mxCell>
        <mxCell id="acdErQ66P6RH8D1Io6qJ-108" value="" style="endArrow=classic;html=1;rounded=0;entryX=0;entryY=0.5;entryDx=0;entryDy=0;" parent="1" edge="1">
          <mxGeometry width="50" height="50" relative="1" as="geometry">
            <mxPoint x="530" y="899.8900000000001" as="sourcePoint" />
            <mxPoint x="550" y="899.8900000000001" as="targetPoint" />
          </mxGeometry>
        </mxCell>
        <mxCell id="acdErQ66P6RH8D1Io6qJ-109" value="" style="endArrow=classic;html=1;rounded=0;entryX=1;entryY=0.5;entryDx=0;entryDy=0;" parent="1" edge="1">
          <mxGeometry width="50" height="50" relative="1" as="geometry">
            <mxPoint x="850" y="539.77" as="sourcePoint" />
            <mxPoint x="830" y="539.96" as="targetPoint" />
          </mxGeometry>
        </mxCell>
        <mxCell id="acdErQ66P6RH8D1Io6qJ-110" value="" style="endArrow=classic;html=1;rounded=0;entryX=0;entryY=0.5;entryDx=0;entryDy=0;" parent="1" edge="1">
          <mxGeometry width="50" height="50" relative="1" as="geometry">
            <mxPoint x="850" y="539.77" as="sourcePoint" />
            <mxPoint x="870" y="539.77" as="targetPoint" />
          </mxGeometry>
        </mxCell>
        <mxCell id="acdErQ66P6RH8D1Io6qJ-111" value="" style="endArrow=classic;html=1;rounded=0;entryX=1;entryY=0.5;entryDx=0;entryDy=0;" parent="1" edge="1">
          <mxGeometry width="50" height="50" relative="1" as="geometry">
            <mxPoint x="850" y="589.8999999999999" as="sourcePoint" />
            <mxPoint x="830" y="590.0899999999999" as="targetPoint" />
          </mxGeometry>
        </mxCell>
        <mxCell id="acdErQ66P6RH8D1Io6qJ-112" value="" style="endArrow=classic;html=1;rounded=0;entryX=0;entryY=0.5;entryDx=0;entryDy=0;" parent="1" edge="1">
          <mxGeometry width="50" height="50" relative="1" as="geometry">
            <mxPoint x="850" y="589.9" as="sourcePoint" />
            <mxPoint x="870" y="589.9" as="targetPoint" />
          </mxGeometry>
        </mxCell>
        <mxCell id="acdErQ66P6RH8D1Io6qJ-113" value="" style="endArrow=classic;html=1;rounded=0;entryX=1;entryY=0.5;entryDx=0;entryDy=0;" parent="1" edge="1">
          <mxGeometry width="50" height="50" relative="1" as="geometry">
            <mxPoint x="850" y="644.8499999999999" as="sourcePoint" />
            <mxPoint x="830" y="645.04" as="targetPoint" />
          </mxGeometry>
        </mxCell>
        <mxCell id="acdErQ66P6RH8D1Io6qJ-114" value="" style="endArrow=classic;html=1;rounded=0;entryX=0;entryY=0.5;entryDx=0;entryDy=0;" parent="1" edge="1">
          <mxGeometry width="50" height="50" relative="1" as="geometry">
            <mxPoint x="850" y="644.85" as="sourcePoint" />
            <mxPoint x="870" y="644.85" as="targetPoint" />
          </mxGeometry>
        </mxCell>
        <mxCell id="acdErQ66P6RH8D1Io6qJ-115" value="" style="endArrow=classic;html=1;rounded=0;entryX=1;entryY=0.5;entryDx=0;entryDy=0;" parent="1" edge="1">
          <mxGeometry width="50" height="50" relative="1" as="geometry">
            <mxPoint x="850" y="699.8499999999999" as="sourcePoint" />
            <mxPoint x="830" y="700.04" as="targetPoint" />
          </mxGeometry>
        </mxCell>
        <mxCell id="acdErQ66P6RH8D1Io6qJ-116" value="" style="endArrow=classic;html=1;rounded=0;entryX=0;entryY=0.5;entryDx=0;entryDy=0;" parent="1" edge="1">
          <mxGeometry width="50" height="50" relative="1" as="geometry">
            <mxPoint x="850" y="699.85" as="sourcePoint" />
            <mxPoint x="870" y="699.85" as="targetPoint" />
          </mxGeometry>
        </mxCell>
        <mxCell id="acdErQ66P6RH8D1Io6qJ-117" value="" style="endArrow=classic;html=1;rounded=0;entryX=1;entryY=0.5;entryDx=0;entryDy=0;" parent="1" edge="1">
          <mxGeometry width="50" height="50" relative="1" as="geometry">
            <mxPoint x="850" y="749.8499999999999" as="sourcePoint" />
            <mxPoint x="830" y="750.04" as="targetPoint" />
          </mxGeometry>
        </mxCell>
        <mxCell id="acdErQ66P6RH8D1Io6qJ-118" value="" style="endArrow=classic;html=1;rounded=0;entryX=0;entryY=0.5;entryDx=0;entryDy=0;" parent="1" edge="1">
          <mxGeometry width="50" height="50" relative="1" as="geometry">
            <mxPoint x="850" y="749.85" as="sourcePoint" />
            <mxPoint x="870" y="749.85" as="targetPoint" />
          </mxGeometry>
        </mxCell>
        <mxCell id="acdErQ66P6RH8D1Io6qJ-119" value="" style="endArrow=classic;html=1;rounded=0;entryX=1;entryY=0.5;entryDx=0;entryDy=0;" parent="1" edge="1">
          <mxGeometry width="50" height="50" relative="1" as="geometry">
            <mxPoint x="850" y="799.8499999999999" as="sourcePoint" />
            <mxPoint x="830" y="800.04" as="targetPoint" />
          </mxGeometry>
        </mxCell>
        <mxCell id="acdErQ66P6RH8D1Io6qJ-120" value="" style="endArrow=classic;html=1;rounded=0;entryX=0;entryY=0.5;entryDx=0;entryDy=0;" parent="1" edge="1">
          <mxGeometry width="50" height="50" relative="1" as="geometry">
            <mxPoint x="850" y="799.85" as="sourcePoint" />
            <mxPoint x="870" y="799.85" as="targetPoint" />
          </mxGeometry>
        </mxCell>
        <mxCell id="acdErQ66P6RH8D1Io6qJ-121" value="" style="endArrow=classic;html=1;rounded=0;entryX=1;entryY=0.5;entryDx=0;entryDy=0;" parent="1" edge="1">
          <mxGeometry width="50" height="50" relative="1" as="geometry">
            <mxPoint x="850" y="849.8499999999999" as="sourcePoint" />
            <mxPoint x="830" y="850.04" as="targetPoint" />
          </mxGeometry>
        </mxCell>
        <mxCell id="acdErQ66P6RH8D1Io6qJ-122" value="" style="endArrow=classic;html=1;rounded=0;entryX=0;entryY=0.5;entryDx=0;entryDy=0;" parent="1" edge="1">
          <mxGeometry width="50" height="50" relative="1" as="geometry">
            <mxPoint x="850" y="849.85" as="sourcePoint" />
            <mxPoint x="870" y="849.85" as="targetPoint" />
          </mxGeometry>
        </mxCell>
        <mxCell id="acdErQ66P6RH8D1Io6qJ-123" value="" style="endArrow=classic;html=1;rounded=0;entryX=1;entryY=0.5;entryDx=0;entryDy=0;" parent="1" edge="1">
          <mxGeometry width="50" height="50" relative="1" as="geometry">
            <mxPoint x="850" y="899.8499999999999" as="sourcePoint" />
            <mxPoint x="830" y="900.04" as="targetPoint" />
          </mxGeometry>
        </mxCell>
        <mxCell id="acdErQ66P6RH8D1Io6qJ-124" value="" style="endArrow=classic;html=1;rounded=0;entryX=0;entryY=0.5;entryDx=0;entryDy=0;" parent="1" edge="1">
          <mxGeometry width="50" height="50" relative="1" as="geometry">
            <mxPoint x="850" y="899.85" as="sourcePoint" />
            <mxPoint x="870" y="899.85" as="targetPoint" />
          </mxGeometry>
        </mxCell>
      </root>
    </mxGraphModel>
  </diagram>
</mxfile>
